<svg width="1000" height="1000" viewBox="0 0 1000 1000" fill="none" xmlns="http://www.w3.org/2000/svg">
<rect width="1000" height="1000" fill="white"/>
<path d="M132.569 559V441.909H178.765C187.646 441.909 195.212 443.605 201.463 446.998C207.714 450.352 212.478 455.021 215.756 461.005C219.072 466.951 220.73 473.812 220.73 481.587C220.73 489.363 219.053 496.224 215.699 502.17C212.345 508.116 207.485 512.747 201.12 516.063C194.793 519.379 187.131 521.037 178.136 521.037H148.692V501.198H174.134C178.898 501.198 182.824 500.378 185.912 498.739C189.037 497.062 191.362 494.756 192.887 491.821C194.45 488.848 195.231 485.437 195.231 481.587C195.231 477.7 194.45 474.307 192.887 471.411C191.362 468.476 189.037 466.208 185.912 464.607C182.786 462.968 178.822 462.148 174.02 462.148H157.325V559H132.569ZM240.03 559V441.909H286.226C295.069 441.909 302.616 443.491 308.867 446.654C315.156 449.78 319.939 454.22 323.217 459.976C326.533 465.693 328.191 472.421 328.191 480.158C328.191 487.934 326.514 494.623 323.16 500.226C319.806 505.791 314.946 510.06 308.581 513.033C302.254 516.006 294.593 517.492 285.597 517.492H254.667V497.596H281.595C286.321 497.596 290.247 496.948 293.373 495.652C296.498 494.356 298.823 492.412 300.348 489.82C301.911 487.228 302.692 484.008 302.692 480.158C302.692 476.27 301.911 472.992 300.348 470.324C298.823 467.656 296.479 465.636 293.316 464.264C290.19 462.854 286.245 462.148 281.481 462.148H264.786V559H240.03ZM303.264 505.714L332.365 559H305.036L276.564 505.714H303.264ZM456.507 500.455C456.507 513.223 454.086 524.086 449.246 533.043C444.443 542 437.887 548.842 429.578 553.569C421.307 558.257 412.007 560.601 401.677 560.601C391.272 560.601 381.934 558.238 373.662 553.511C365.391 548.785 358.855 541.943 354.052 532.986C349.249 524.029 346.848 513.185 346.848 500.455C346.848 487.686 349.249 476.823 354.052 467.866C358.855 458.909 365.391 452.086 373.662 447.398C381.934 442.671 391.272 440.308 401.677 440.308C412.007 440.308 421.307 442.671 429.578 447.398C437.887 452.086 444.443 458.909 449.246 467.866C454.086 476.823 456.507 487.686 456.507 500.455ZM431.408 500.455C431.408 492.183 430.169 485.208 427.691 479.529C425.252 473.85 421.802 469.543 417.343 466.608C412.883 463.673 407.662 462.206 401.677 462.206C395.693 462.206 390.471 463.673 386.012 466.608C381.552 469.543 378.084 473.85 375.606 479.529C373.167 485.208 371.947 492.183 371.947 500.455C371.947 508.726 373.167 515.701 375.606 521.38C378.084 527.059 381.552 531.366 386.012 534.301C390.471 537.236 395.693 538.703 401.677 538.703C407.662 538.703 412.883 537.236 417.343 534.301C421.802 531.366 425.252 527.059 427.691 521.38C430.169 515.701 431.408 508.726 431.408 500.455ZM478.065 559V441.909H524.261C533.142 441.909 540.708 443.605 546.959 446.998C553.21 450.352 557.974 455.021 561.252 461.005C564.568 466.951 566.226 473.812 566.226 481.587C566.226 489.363 564.549 496.224 561.195 502.17C557.841 508.116 552.981 512.747 546.616 516.063C540.289 519.379 532.627 521.037 523.632 521.037H494.188V501.198H519.63C524.394 501.198 528.32 500.378 531.408 498.739C534.533 497.062 536.858 494.756 538.383 491.821C539.945 488.848 540.727 485.437 540.727 481.587C540.727 477.7 539.945 474.307 538.383 471.411C536.858 468.476 534.533 466.208 531.408 464.607C528.282 462.968 524.318 462.148 519.516 462.148H502.821V559H478.065ZM610.282 441.909V559H585.526V441.909H610.282ZM633.87 559V441.909H658.626V538.589H708.824V559H633.87ZM728.439 559V441.909H753.195V493.537H754.739L796.875 441.909H826.548L783.096 494.337L827.063 559H797.447L765.373 510.86L753.195 525.725V559H728.439ZM867.417 441.909V559H842.661V441.909H867.417Z" fill="black"/>
</svg>
