<svg width="300" height="300" viewBox="0 0 300 300" fill="none" xmlns="http://www.w3.org/2000/svg">
<rect width="300" height="300" rx="100" fill="white"/>
<path d="M107.681 208.125V91.0341H153.877C162.758 91.0341 170.324 92.7302 176.575 96.1225C182.826 99.4767 187.59 104.146 190.868 110.13C194.184 116.076 195.842 122.937 195.842 130.712C195.842 138.488 194.165 145.349 190.811 151.295C187.457 157.241 182.597 161.872 176.232 165.188C169.905 168.504 162.244 170.162 153.248 170.162H123.804V150.323H149.246C154.011 150.323 157.937 149.503 161.024 147.864C164.149 146.187 166.474 143.881 167.999 140.946C169.562 137.973 170.343 134.562 170.343 130.712C170.343 126.825 169.562 123.432 167.999 120.536C166.474 117.601 164.149 115.333 161.024 113.732C157.898 112.093 153.934 111.273 149.132 111.273H132.437V208.125H107.681Z" fill="black"/>
</svg>
