<svg width="800" height="800" viewBox="0 0 800 800" fill="none" xmlns="http://www.w3.org/2000/svg">
<rect width="800" height="800" rx="100" fill="white"/>
<path d="M268.74 580.5V216.864H412.206C439.786 216.864 463.283 222.131 482.696 232.666C502.109 243.083 516.905 257.583 527.085 276.168C537.383 294.634 542.533 315.94 542.533 340.088C542.533 364.236 537.324 385.543 526.908 404.009C516.491 422.474 501.399 436.857 481.631 447.155C461.981 457.453 438.188 462.602 410.253 462.602H318.811V400.99H397.824C412.62 400.99 424.812 398.445 434.4 393.355C444.107 388.147 451.327 380.985 456.062 371.871C460.916 362.638 463.342 352.044 463.342 340.088C463.342 328.014 460.916 317.479 456.062 308.483C451.327 299.368 444.107 292.325 434.4 287.354C424.694 282.264 412.383 279.719 397.469 279.719H345.622V580.5H268.74Z" fill="black"/>
</svg>
