<svg width="1000" height="400" viewBox="0 0 1000 400" fill="none" xmlns="http://www.w3.org/2000/svg">
<path d="M132.569 259V141.909H178.765C187.646 141.909 195.212 143.605 201.463 146.998C207.714 150.352 212.478 155.021 215.756 161.005C219.072 166.951 220.73 173.812 220.73 181.587C220.73 189.363 219.053 196.224 215.699 202.17C212.345 208.116 207.485 212.747 201.12 216.063C194.793 219.379 187.131 221.037 178.136 221.037H148.692V201.198H174.134C178.898 201.198 182.824 200.378 185.912 198.739C189.037 197.062 191.362 194.756 192.887 191.821C194.45 188.848 195.231 185.437 195.231 181.587C195.231 177.7 194.45 174.307 192.887 171.411C191.362 168.476 189.037 166.208 185.912 164.607C182.786 162.968 178.822 162.148 174.02 162.148H157.325V259H132.569ZM240.03 259V141.909H286.226C295.069 141.909 302.616 143.491 308.867 146.654C315.156 149.78 319.939 154.22 323.217 159.976C326.533 165.693 328.191 172.421 328.191 180.158C328.191 187.934 326.514 194.623 323.16 200.226C319.806 205.791 314.946 210.06 308.581 213.033C302.254 216.006 294.593 217.492 285.597 217.492H254.667V197.596H281.595C286.321 197.596 290.247 196.948 293.373 195.652C296.498 194.356 298.823 192.412 300.348 189.82C301.911 187.228 302.692 184.008 302.692 180.158C302.692 176.27 301.911 172.992 300.348 170.324C298.823 167.656 296.479 165.636 293.316 164.264C290.19 162.854 286.245 162.148 281.481 162.148H264.786V259H240.03ZM303.264 205.714L332.365 259H305.036L276.564 205.714H303.264ZM456.507 200.455C456.507 213.223 454.086 224.086 449.246 233.043C444.443 242 437.887 248.842 429.578 253.569C421.307 258.257 412.007 260.601 401.677 260.601C391.272 260.601 381.934 258.238 373.662 253.511C365.391 248.785 358.855 241.943 354.052 232.986C349.249 224.029 346.848 213.185 346.848 200.455C346.848 187.686 349.249 176.823 354.052 167.866C358.855 158.909 365.391 152.086 373.662 147.398C381.934 142.671 391.272 140.308 401.677 140.308C412.007 140.308 421.307 142.671 429.578 147.398C437.887 152.086 444.443 158.909 449.246 167.866C454.086 176.823 456.507 187.686 456.507 200.455ZM431.408 200.455C431.408 192.183 430.169 185.208 427.691 179.529C425.252 173.85 421.802 169.543 417.343 166.608C412.883 163.673 407.662 162.206 401.677 162.206C395.693 162.206 390.471 163.673 386.012 166.608C381.552 169.543 378.084 173.85 375.606 179.529C373.167 185.208 371.947 192.183 371.947 200.455C371.947 208.726 373.167 215.701 375.606 221.38C378.084 227.059 381.552 231.366 386.012 234.301C390.471 237.236 395.693 238.703 401.677 238.703C407.662 238.703 412.883 237.236 417.343 234.301C421.802 231.366 425.252 227.059 427.691 221.38C430.169 215.701 431.408 208.726 431.408 200.455ZM478.065 259V141.909H524.261C533.142 141.909 540.708 143.605 546.959 146.998C553.21 150.352 557.974 155.021 561.252 161.005C564.568 166.951 566.226 173.812 566.226 181.587C566.226 189.363 564.549 196.224 561.195 202.17C557.841 208.116 552.981 212.747 546.616 216.063C540.289 219.379 532.627 221.037 523.632 221.037H494.188V201.198H519.63C524.394 201.198 528.32 200.378 531.408 198.739C534.533 197.062 536.858 194.756 538.383 191.821C539.945 188.848 540.727 185.437 540.727 181.587C540.727 177.7 539.945 174.307 538.383 171.411C536.858 168.476 534.533 166.208 531.408 164.607C528.282 162.968 524.318 162.148 519.516 162.148H502.821V259H478.065ZM610.282 141.909V259H585.526V141.909H610.282ZM633.87 259V141.909H658.626V238.589H708.824V259H633.87ZM728.439 259V141.909H753.195V193.537H754.739L796.875 141.909H826.548L783.096 194.337L827.063 259H797.447L765.373 210.86L753.195 225.725V259H728.439ZM867.417 141.909V259H842.661V141.909H867.417Z" fill="black"/>
</svg>
