<svg width="1000" height="1000" viewBox="0 0 1000 1000" fill="none" xmlns="http://www.w3.org/2000/svg">
<rect width="1000" height="1000" fill="white"/>
<path d="M346.784 475.584C346.326 470.972 344.364 467.389 340.895 464.836C337.426 462.282 332.719 461.005 326.773 461.005C322.733 461.005 319.322 461.577 316.539 462.72C313.757 463.826 311.622 465.369 310.136 467.351C308.687 469.333 307.963 471.582 307.963 474.098C307.887 476.194 308.325 478.024 309.278 479.586C310.269 481.149 311.622 482.502 313.337 483.646C315.053 484.751 317.035 485.723 319.283 486.561C321.532 487.362 323.934 488.048 326.487 488.62L337.007 491.135C342.115 492.279 346.803 493.803 351.072 495.709C355.341 497.615 359.038 499.959 362.163 502.741C365.289 505.524 367.709 508.802 369.424 512.575C371.178 516.349 372.073 520.675 372.112 525.554C372.073 532.719 370.244 538.932 366.623 544.192C363.04 549.414 357.856 553.473 351.072 556.37C344.325 559.229 336.188 560.658 326.659 560.658C317.206 560.658 308.973 559.21 301.96 556.313C294.985 553.416 289.534 549.128 285.608 543.449C281.721 537.732 279.681 530.661 279.491 522.238H303.446C303.713 526.163 304.838 529.441 306.82 532.071C308.84 534.663 311.527 536.626 314.881 537.96C318.273 539.256 322.104 539.904 326.373 539.904C330.566 539.904 334.206 539.294 337.293 538.075C340.419 536.855 342.839 535.159 344.554 532.986C346.269 530.814 347.127 528.317 347.127 525.496C347.127 522.866 346.346 520.656 344.783 518.864C343.258 517.073 341.009 515.548 338.036 514.29C335.101 513.033 331.5 511.889 327.231 510.86L314.481 507.658C304.609 505.257 296.814 501.503 291.097 496.395C285.38 491.288 282.54 484.408 282.578 475.756C282.54 468.666 284.427 462.472 288.238 457.174C292.088 451.876 297.367 447.741 304.075 444.768C310.784 441.795 318.407 440.308 326.945 440.308C335.635 440.308 343.22 441.795 349.7 444.768C356.217 447.741 361.287 451.876 364.908 457.174C368.529 462.472 370.396 468.609 370.511 475.584H346.784ZM499.583 500.455C499.583 513.223 497.163 524.086 492.322 533.043C487.52 542 480.964 548.842 472.655 553.569C464.384 558.257 455.084 560.601 444.754 560.601C434.349 560.601 425.01 558.238 416.739 553.511C408.468 548.785 401.931 541.943 397.129 532.986C392.326 524.029 389.925 513.185 389.925 500.455C389.925 487.686 392.326 476.823 397.129 467.866C401.931 458.909 408.468 452.086 416.739 447.398C425.01 442.671 434.349 440.308 444.754 440.308C455.084 440.308 464.384 442.671 472.655 447.398C480.964 452.086 487.52 458.909 492.322 467.866C497.163 476.823 499.583 487.686 499.583 500.455ZM474.484 500.455C474.484 492.183 473.246 485.208 470.768 479.529C468.329 473.85 464.879 469.543 460.42 466.608C455.96 463.673 450.738 462.206 444.754 462.206C438.77 462.206 433.548 463.673 429.089 466.608C424.629 469.543 421.161 473.85 418.683 479.529C416.244 485.208 415.024 492.183 415.024 500.455C415.024 508.726 416.244 515.701 418.683 521.38C421.161 527.059 424.629 531.366 429.089 534.301C433.548 537.236 438.77 538.703 444.754 538.703C450.738 538.703 455.96 537.236 460.42 534.301C464.879 531.366 468.329 527.059 470.768 521.38C473.246 515.701 474.484 508.726 474.484 500.455ZM521.142 559V441.909H545.898V538.589H596.096V559H521.142ZM718.751 500.455C718.751 513.223 716.331 524.086 711.49 533.043C706.687 542 700.132 548.842 691.822 553.569C683.551 558.257 674.251 560.601 663.922 560.601C653.516 560.601 644.178 558.238 635.907 553.511C627.636 548.785 621.099 541.943 616.296 532.986C611.494 524.029 609.093 513.185 609.093 500.455C609.093 487.686 611.494 476.823 616.296 467.866C621.099 458.909 627.636 452.086 635.907 447.398C644.178 442.671 653.516 440.308 663.922 440.308C674.251 440.308 683.551 442.671 691.822 447.398C700.132 452.086 706.687 458.909 711.49 467.866C716.331 476.823 718.751 487.686 718.751 500.455ZM693.652 500.455C693.652 492.183 692.413 485.208 689.936 479.529C687.496 473.85 684.047 469.543 679.587 466.608C675.128 463.673 669.906 462.206 663.922 462.206C657.938 462.206 652.716 463.673 648.256 466.608C643.797 469.543 640.328 473.85 637.851 479.529C635.411 485.208 634.192 492.183 634.192 500.455C634.192 508.726 635.411 515.701 637.851 521.38C640.328 527.059 643.797 531.366 648.256 534.301C652.716 537.236 657.938 538.703 663.922 538.703C669.906 538.703 675.128 537.236 679.587 534.301C684.047 531.366 687.496 527.059 689.936 521.38C692.413 515.701 693.652 508.726 693.652 500.455Z" fill="black"/>
</svg>
