<svg width="800" height="800" viewBox="0 0 800 800" fill="none" xmlns="http://www.w3.org/2000/svg">
<rect width="800" height="800" rx="100" fill="white"/>
<path d="M465.327 322.679C463.906 308.356 457.81 297.229 447.039 289.299C436.267 281.368 421.648 277.402 403.182 277.402C390.635 277.402 380.04 279.178 371.399 282.729C362.758 286.162 356.129 290.956 351.513 297.111C347.015 303.266 344.766 310.25 344.766 318.063C344.529 324.573 345.89 330.255 348.85 335.108C351.927 339.961 356.129 344.164 361.456 347.715C366.783 351.147 372.938 354.166 379.922 356.77C386.906 359.256 394.363 361.387 402.294 363.162L434.965 370.975C450.826 374.526 465.386 379.261 478.644 385.179C491.901 391.098 503.383 398.378 513.09 407.019C522.796 415.66 530.313 425.84 535.639 437.558C541.085 449.277 543.866 462.712 543.985 477.864C543.866 500.118 538.184 519.412 526.939 535.747C515.812 551.964 499.714 564.571 478.644 573.567C457.692 582.445 432.42 586.884 402.827 586.884C373.471 586.884 347.903 582.386 326.122 573.389C304.46 564.393 287.533 551.076 275.341 533.439C263.267 515.683 256.934 493.726 256.343 467.566H330.739C331.567 479.758 335.059 489.938 341.215 498.105C347.488 506.155 355.834 512.251 366.25 516.394C376.785 520.418 388.682 522.431 401.939 522.431C414.96 522.431 426.264 520.537 435.852 516.749C445.559 512.961 453.075 507.693 458.402 500.946C463.729 494.199 466.392 486.446 466.392 477.686C466.392 469.519 463.966 462.653 459.112 457.09C454.378 451.526 447.394 446.791 438.161 442.885C429.046 438.979 417.86 435.428 404.602 432.232L365.007 422.289C334.349 414.831 310.142 403.172 292.387 387.31C274.631 371.448 265.812 350.082 265.931 323.212C265.812 301.195 271.672 281.96 283.509 265.506C295.464 249.052 311.859 236.209 332.692 226.976C353.525 217.743 377.2 213.127 403.715 213.127C430.703 213.127 454.259 217.743 474.382 226.976C494.624 236.209 510.367 249.052 521.612 265.506C532.858 281.96 538.658 301.017 539.013 322.679H465.327Z" fill="black"/>
</svg>
